# xmcd CD database file
#
# Track frame offsets:
#	150
#	16079
#	33221
#	54314
#	69872
#	84739
#	96515
#
# Disc length: 1565 seconds
#
# Revision: 0
# Processed by: cddbd v1.5.2PL0 Copyright (c) Steve Scherf et al.
# Submitted via: CDex 1.51
#
DISCID=4b061b07
DTITLE=Kylie Moss - Nobody Don't
DYEAR=1900
DGENRE=Country
TTITLE0=Kylie Moss - Nobody Don't
TTITLE1=Kylie Moss - What Breaks You
TTITLE2=Kylie Moss - Amarillo
TTITLE3=Kylie Moss - Down And Out
TTITLE4=Kylie Moss - It's Me Again
TTITLE5=Kylie Moss - Fast Love
TTITLE6=Kylie Moss - Never Comin' Down
EXTD=
EXTT0=
EXTT1=
EXTT2=
EXTT3=
EXTT4=
EXTT5=
EXTT6=
PLAYORDER=
